<svg width="24" height="24" viewBox="0 0 24 24" fill="none" xmlns="http://www.w3.org/2000/svg">
<path d="M8 3.00098H5C4.46957 3.00098 3.96086 3.21169 3.58579 3.58676C3.21071 3.96184 3 4.47054 3 5.00098V8.00098M21 8.00098V5.00098C21 4.47054 20.7893 3.96184 20.4142 3.58676C20.0391 3.21169 19.5304 3.00098 19 3.00098H16M16 21.001H19C19.5304 21.001 20.0391 20.7903 20.4142 20.4152C20.7893 20.0401 21 19.5314 21 19.001V16.001M3 16.001V19.001C3 19.5314 3.21071 20.0401 3.58579 20.4152C3.96086 20.7903 4.46957 21.001 5 21.001H8" stroke="white" stroke-width="2" stroke-linecap="round" stroke-linejoin="round"/>
</svg>
