<svg width="24" height="24" viewBox="0 0 24 24" fill="none" xmlns="http://www.w3.org/2000/svg">
<g clip-path="url(#clip0_3673:14314)">
<path d="M8 23.001H16" stroke="white" stroke-width="2" stroke-linecap="round" stroke-linejoin="round"/>
<path d="M12 19.001V23.001" stroke="white" stroke-width="2" stroke-linecap="round" stroke-linejoin="round"/>
<path d="M12 1.00098C11.2044 1.00098 10.4413 1.31705 9.87868 1.87966C9.31607 2.44227 9 3.20533 9 4.00098V12.001C9 12.7966 9.31607 13.5597 9.87868 14.1223C10.4413 14.6849 11.2044 15.001 12 15.001C12.7956 15.001 13.5587 14.6849 14.1213 14.1223C14.6839 13.5597 15 12.7966 15 12.001V4.00098C15 3.20533 14.6839 2.44227 14.1213 1.87966C13.5587 1.31705 12.7956 1.00098 12 1.00098V1.00098Z" stroke="white" stroke-width="2" stroke-linecap="round" stroke-linejoin="round"/>
<path d="M19 10.001V12.001C19 13.8575 18.2625 15.638 16.9497 16.9507C15.637 18.2635 13.8565 19.001 12 19.001C10.1435 19.001 8.36301 18.2635 7.05025 16.9507C5.7375 15.638 5 13.8575 5 12.001V10.001" stroke="white" stroke-width="2" stroke-linecap="round" stroke-linejoin="round"/>
</g>
<defs>
<clipPath id="clip0_3673:14314">
<rect width="24" height="24" fill="white" transform="translate(0 0.000976562)"/>
</clipPath>
</defs>
</svg>
