<svg width="56" height="56" viewBox="0 0 56 56" fill="none" xmlns="http://www.w3.org/2000/svg">
<g clip-path="url(#clip0_4693:24850)">
<path d="M0 44.3335C0.003705 47.4266 1.23406 50.3919 3.42118 52.579C5.6083 54.7661 8.57361 55.9965 11.6667 56.0002H44.3333C47.4264 55.9965 50.3917 54.7661 52.5788 52.579C54.7659 50.3919 55.9963 47.4266 56 44.3335V21.3335H0V44.3335Z" fill="#3777EE"/>
<path d="M42 4.66667H44.3333C47.4264 4.67037 50.3917 5.90072 52.5788 8.08785C54.7659 10.275 55.9963 13.2403 56 16.3333H0C0.003705 13.2403 1.23406 10.275 3.42118 8.08785C5.6083 5.90072 8.57361 4.67037 11.6667 4.66667H14V2.33333C14 1.71449 14.2458 1.121 14.6834 0.683418C15.121 0.245833 15.7145 0 16.3333 0C16.9522 0 17.5457 0.245833 17.9832 0.683418C18.4208 1.121 18.6667 1.71449 18.6667 2.33333V4.66667H37.3333V2.33333C37.3333 1.71449 37.5792 1.121 38.0167 0.683418C38.4543 0.245833 39.0478 0 39.6667 0C40.2855 0 40.879 0.245833 41.3166 0.683418C41.7542 1.121 42 1.71449 42 2.33333V4.66667Z" fill="#3777EE"/>
<rect x="5" y="26" width="46" height="5" rx="2" fill="white"/>
<rect x="5" y="35" width="46" height="5" rx="2" fill="white"/>
<rect x="5" y="44" width="46" height="5" rx="2" fill="white"/>
</g>
<defs>
<clipPath id="clip0_4693:24850">
<rect width="56" height="56" fill="white"/>
</clipPath>
</defs>
</svg>
