<svg width="167" height="32" viewBox="0 0 167 32" fill="none" xmlns="http://www.w3.org/2000/svg">
<path d="M9.44029 21.8956C10.5865 21.8956 11.6962 21.7594 12.7694 21.4869C13.853 21.2144 14.8221 20.8057 15.6765 20.2607C16.5309 19.706 17.2082 19.0103 17.7084 18.1734C18.2189 17.3267 18.4742 16.339 18.4742 15.2102C18.4742 14.1494 18.2606 13.2736 17.8334 12.5827C17.4166 11.8918 16.88 11.3371 16.2235 10.9186C15.5775 10.4904 14.9002 10.1596 14.1917 9.92601C13.4831 9.68272 12.8371 9.4881 12.2536 9.34213L8.34621 8.34953C7.86691 8.23275 7.39802 8.08678 6.93955 7.91161C6.48108 7.73645 6.10076 7.50776 5.79859 7.22555C5.49642 6.93361 5.34533 6.55895 5.34533 6.10158C5.34533 5.60528 5.52767 5.17709 5.89236 4.81703C6.26748 4.45697 6.74678 4.18449 7.33029 3.9996C7.92421 3.80497 8.55461 3.71739 9.22147 3.73685C10.2426 3.76605 11.1804 4.04825 12.0348 4.58348C12.8892 5.11871 13.4415 5.89722 13.6915 6.91901L18.2866 6.18916C17.7448 4.21369 16.6924 2.70046 15.1295 1.64947C13.5665 0.59848 11.618 0.0583887 9.28399 0.0291944C7.74187 0.0194625 6.3352 0.243284 5.064 0.70066C3.79279 1.15803 2.77686 1.85383 2.01622 2.78804C1.25558 3.72225 0.875259 4.89489 0.875259 6.30594C0.875259 7.30827 1.05239 8.1403 1.40667 8.80204C1.77136 9.45404 2.22462 9.97953 2.76644 10.3785C3.30827 10.7775 3.86573 11.084 4.43881 11.2981C5.02232 11.5122 5.53288 11.6777 5.97051 11.7944L11.816 13.4001C12.6912 13.6434 13.2748 13.9499 13.5665 14.3197C13.8583 14.6798 14.0041 15.0739 14.0041 15.5021C14.0041 16.086 13.7905 16.5774 13.3633 16.9764C12.9465 17.3754 12.4099 17.6771 11.7535 17.8814C11.097 18.0858 10.4197 18.188 9.72162 18.188C8.47125 18.188 7.35634 17.862 6.37688 17.21C5.39743 16.5579 4.7514 15.6286 4.43881 14.4219L0 15.035C0.229234 16.4558 0.771061 17.6819 1.62548 18.7135C2.49032 19.7352 3.5896 20.5235 4.92333 21.0782C6.26748 21.6231 7.77313 21.8956 9.44029 21.8956Z" fill="#3777EE"/>
<path d="M26.5984 21.8956C27.9009 21.8956 28.995 21.7107 29.8807 21.3409C30.7768 20.9614 31.5999 20.3581 32.3501 19.5309V21.4577H36.07V11.8236C36.07 11.1035 36.0387 10.4515 35.9762 9.86762C35.9137 9.28374 35.7157 8.69986 35.3823 8.11597C34.7884 7.06498 33.9131 6.3254 32.7565 5.89722C31.5999 5.46904 30.2766 5.25495 28.7866 5.25495C26.7547 5.25495 25.1501 5.66367 23.9727 6.4811C22.7952 7.29854 21.9929 8.35926 21.5657 9.66326L25.4106 10.8018C25.6815 10.0817 26.1556 9.58055 26.8329 9.29834C27.5102 9.01613 28.1614 8.87502 28.7866 8.87502C29.7869 8.87502 30.5319 9.05019 31.0216 9.40052C31.5113 9.74111 31.7979 10.2812 31.8812 11.0208C30.2974 11.2349 28.9012 11.4441 27.6925 11.6485C26.4838 11.8431 25.4731 12.0766 24.6604 12.3491C23.3058 12.8162 22.3524 13.4536 21.8001 14.2613C21.2479 15.0593 20.9718 16.0081 20.9718 17.1078C20.9718 17.9836 21.1854 18.7864 21.6126 19.5163C22.0502 20.2364 22.6858 20.8154 23.5194 21.2533C24.3634 21.6815 25.3897 21.8956 26.5984 21.8956ZM27.5049 18.7718C26.7756 18.7718 26.1973 18.621 25.7701 18.3193C25.3429 18.0079 25.1292 17.5846 25.1292 17.0494C25.1292 16.6504 25.2647 16.3098 25.5356 16.0276C25.8065 15.7356 26.2546 15.4729 26.8798 15.2393C27.3591 15.0739 27.9478 14.9231 28.6459 14.7868C29.3545 14.6409 30.4225 14.456 31.85 14.2321C31.8396 14.6117 31.8083 15.0301 31.7562 15.4875C31.7041 15.9351 31.5895 16.3293 31.4124 16.6699C31.2977 16.8937 31.0789 17.171 30.7559 17.5019C30.4433 17.8328 30.0161 18.1296 29.4743 18.3923C28.9429 18.6453 28.2864 18.7718 27.5049 18.7718Z" fill="#3777EE"/>
<path d="M40.4465 21.4577H44.6978V0L40.4465 0V21.4577Z" fill="#3777EE"/>
<path d="M55.6666 21.9248C56.8857 21.9248 57.9485 21.735 58.855 21.3555C59.7615 20.976 60.5222 20.47 61.137 19.8374V21.4577H64.8881V5.69286H60.6055V13.6921C60.6055 14.6652 60.4857 15.4534 60.2461 16.0568C60.0168 16.6504 59.7199 17.1029 59.3552 17.4143C58.9905 17.716 58.5997 17.9203 58.183 18.0274C57.7662 18.1344 57.3754 18.188 57.0107 18.188C56.1042 18.188 55.4009 17.9982 54.9007 17.6187C54.411 17.2391 54.0567 16.7672 53.8379 16.2028C53.6191 15.6383 53.4889 15.0788 53.4472 14.5241C53.4055 13.9597 53.3847 13.4974 53.3847 13.1374V5.69286H49.0709V14.5387C49.0709 14.8014 49.0917 15.2199 49.1334 15.794C49.1751 16.3682 49.2949 17.0056 49.4929 17.7063C49.6909 18.3972 50.0191 19.0638 50.4776 19.7061C50.9464 20.3483 51.5977 20.8787 52.4313 21.2971C53.2648 21.7156 54.3433 21.9248 55.6666 21.9248Z" fill="#3777EE"/>
<path d="M69.225 21.4577H72.9761V20.5527C73.5701 20.9809 74.2473 21.3117 75.008 21.5453C75.7686 21.7788 76.6126 21.8956 77.54 21.8956C79.0925 21.8956 80.4523 21.5307 81.6193 20.8008C82.7863 20.071 83.6928 19.0784 84.3389 17.823C84.9953 16.5677 85.3235 15.1518 85.3235 13.5753C85.3235 11.9696 84.9901 10.544 84.3232 9.29834C83.6668 8.04299 82.7394 7.05525 81.5412 6.33513C80.3429 5.61501 78.9362 5.25495 77.3212 5.25495C76.5814 5.25495 75.8885 5.33766 75.2424 5.5031C74.6068 5.66853 74.0285 5.90695 73.5075 6.21835V0.437912L69.225 0.437912V21.4577ZM76.8523 18.3631C75.4352 18.3631 74.4349 17.9252 73.8514 17.0494C73.2679 16.1638 72.9761 15.0058 72.9761 13.5753C72.9761 12.1448 73.2627 10.9916 73.8358 10.1158C74.4193 9.23022 75.3727 8.78744 76.696 8.78744C77.6442 8.78744 78.4205 9.00639 79.0248 9.44431C79.6396 9.87249 80.0928 10.4515 80.3846 11.1814C80.6763 11.9015 80.8222 12.6995 80.8222 13.5753C80.8222 14.4608 80.6815 15.2685 80.4002 15.9984C80.1189 16.7185 79.6865 17.2927 79.103 17.7208C78.5194 18.149 77.7692 18.3631 76.8523 18.3631Z" fill="#3777EE"/>
<path d="M96.6088 21.8956C98.2343 21.8956 99.7296 21.4966 101.095 20.6987C102.47 19.9007 103.475 18.7816 104.111 17.3413L99.8598 16.2028C99.2138 17.5262 98.0468 18.188 96.3588 18.188C95.2022 18.188 94.2905 17.8863 93.6236 17.2829C92.9672 16.6796 92.5608 15.8135 92.4045 14.6847H104.252C104.429 12.7773 104.22 11.1181 103.627 9.70705C103.033 8.296 102.116 7.20122 100.876 6.42271C99.6358 5.6442 98.1301 5.25495 96.3588 5.25495C94.6916 5.25495 93.2172 5.61014 91.9356 6.32053C90.654 7.02119 89.6485 8.00893 88.9191 9.28374C88.1897 10.5586 87.825 12.0572 87.825 13.7796C87.825 15.3561 88.1949 16.7574 88.9347 17.9836C89.6849 19.2 90.7165 20.1586 92.0294 20.8592C93.3527 21.5501 94.8792 21.8956 96.6088 21.8956ZM96.5463 8.69986C97.5675 8.69986 98.3489 8.93828 98.8908 9.41511C99.443 9.89195 99.7973 10.6656 99.9536 11.736H92.5139C92.9619 9.71192 94.3061 8.69986 96.5463 8.69986Z" fill="#3777EE"/>
<path d="M107.781 21.4577H112.063V13.4001C112.063 11.5706 112.834 10.325 114.377 9.66326C114.877 9.43944 115.434 9.30807 116.049 9.26914C116.674 9.22049 117.221 9.26428 117.69 9.40052V5.69286C116.929 5.60528 116.169 5.62474 115.408 5.75125C114.647 5.86802 113.96 6.10158 113.345 6.45191C112.949 6.666 112.6 6.92388 112.298 7.22555C112.006 7.52722 111.751 7.86296 111.532 8.23275V5.69286H107.781V21.4577Z" fill="#3777EE"/>
<path d="M120.663 21.4579H124.633V8.90441L131.166 21.4579H132.667L139.416 8.70188H143.386V0.43811L139.356 0.43811L131.917 14.3929L124.477 0.43811H120.663V21.4579Z" fill="#F5455B"/>
<path d="M147.732 21.4579V12.9401H152.046V17.721H155.016C155.297 17.721 155.677 17.7162 156.157 17.7064C156.636 17.687 157.068 17.6432 157.454 17.5751C158.433 17.3902 159.231 16.962 159.845 16.2905C160.471 15.6191 160.929 14.8114 161.221 13.8674C161.523 12.9235 161.674 11.9503 161.674 10.948C161.674 9.89701 161.518 8.89955 161.205 7.9556C160.903 7.01166 160.439 6.21369 159.814 5.56168C159.189 4.90968 158.402 4.4961 157.454 4.32093C157.068 4.24308 156.636 4.19929 156.157 4.18956C155.677 4.17983 155.297 4.17496 155.016 4.17496H152.046V8.70188H147.732V0.43811H155.016C155.193 0.43811 155.558 0.442976 156.11 0.452708C156.662 0.462439 157.194 0.496498 157.704 0.554887C159.517 0.759246 161.054 1.348 162.315 2.32113C163.576 3.29427 164.534 4.53016 165.191 6.02879C165.847 7.52742 166.175 9.16716 166.175 10.948C166.175 12.7288 165.847 14.3686 165.191 15.8672C164.534 17.3659 163.576 18.6017 162.315 19.5749C161.054 20.548 159.517 21.1368 157.704 21.3411C157.194 21.3995 156.662 21.4336 156.11 21.4433C155.558 21.453 155.193 21.4579 155.016 21.4579H147.732Z" fill="#F5455B"/>
<path d="M139.416 21.4579V12.9401H143.386V21.4579H139.416Z" fill="#F5455B"/>
<path d="M69.3828 30.2053H71.9215C72.5078 30.2053 72.9429 30.0545 73.2267 29.7528C73.5132 29.4487 73.6565 29.0561 73.6565 28.575C73.6565 28.3158 73.5888 28.0777 73.4535 27.8609C73.3209 27.6415 73.1206 27.4795 72.8527 27.3748C73.0224 27.2776 73.1551 27.1405 73.2506 26.9635C73.3461 26.7865 73.3938 26.5759 73.3938 26.3316C73.3938 26.0948 73.3355 25.8605 73.2187 25.6287C73.102 25.3968 72.9177 25.2049 72.6656 25.0529C72.4136 24.8983 72.0834 24.821 71.6748 24.821H69.3828V30.2053ZM70.4811 26.9224V25.7708H71.6589C71.8658 25.7708 72.0237 25.8268 72.1324 25.939C72.2412 26.0512 72.2956 26.1895 72.2956 26.354C72.2956 26.551 72.2346 26.6955 72.1125 26.7878C71.9932 26.8775 71.8419 26.9224 71.6589 26.9224H70.4811ZM70.4811 29.2481V27.8721H71.8101C72.0621 27.8721 72.2505 27.9357 72.3752 28.0628C72.5025 28.1874 72.5662 28.3457 72.5662 28.5376C72.5662 28.7545 72.4945 28.9278 72.3513 29.0574C72.2107 29.1845 72.0303 29.2481 71.8101 29.2481H70.4811Z" fill="#A7A8A9"/>
<path d="M76.4476 30.3174C76.8614 30.3174 77.2421 30.2152 77.5896 30.0108C77.9398 29.8064 78.1958 29.5198 78.3576 29.1508L77.2753 28.8592C77.1108 29.1982 76.8137 29.3677 76.3839 29.3677C76.0895 29.3677 75.8574 29.2904 75.6876 29.1359C75.5205 28.9813 75.417 28.7595 75.3772 28.4703H78.3934C78.4385 27.9818 78.3855 27.5568 78.2343 27.1953C78.0831 26.8339 77.8496 26.5535 77.5339 26.354C77.2182 26.1546 76.8349 26.0549 76.3839 26.0549C75.9595 26.0549 75.5841 26.1459 75.2578 26.3279C74.9315 26.5073 74.6755 26.7604 74.4898 27.0869C74.3042 27.4134 74.2113 27.7973 74.2113 28.2385C74.2113 28.6423 74.3055 29.0013 74.4938 29.3154C74.6848 29.627 74.9475 29.8725 75.2817 30.052C75.6186 30.2289 76.0072 30.3174 76.4476 30.3174ZM76.4317 26.9373C76.6917 26.9373 76.8906 26.9984 77.0286 27.1205C77.1692 27.2427 77.2594 27.4409 77.2992 27.7151H75.4051C75.5191 27.1966 75.8613 26.9373 76.4317 26.9373Z" fill="#A7A8A9"/>
<path d="M81.8704 30.2053V29.3602C81.6158 29.3926 81.3836 29.4026 81.1741 29.3901C80.9645 29.3777 80.812 29.3004 80.7165 29.1583C80.6661 29.0835 80.6382 28.9838 80.6329 28.8592C80.6303 28.7321 80.6289 28.59 80.6289 28.433V26.9523H81.8704V26.1671H80.6289V25.0454H79.5466V26.1671H78.8144V26.9523H79.5466V28.4928C79.5466 28.7346 79.5492 28.9514 79.5545 29.1434C79.5599 29.3328 79.6156 29.5198 79.7217 29.7042C79.8384 29.9012 80.0082 30.0445 80.231 30.1342C80.4565 30.2215 80.7112 30.2676 80.995 30.2726C81.2815 30.28 81.5733 30.2576 81.8704 30.2053ZM84.9264 30.2053V29.3602C84.6718 29.3926 84.4397 29.4026 84.2301 29.3901C84.0205 29.3777 83.868 29.3004 83.7725 29.1583C83.7221 29.0835 83.6942 28.9838 83.6889 28.8592C83.6863 28.7321 83.6849 28.59 83.6849 28.433V26.9523H84.9264V26.1671H83.6849V25.0454H82.6026V26.1671H81.8704V26.9523H82.6026V28.4928C82.6026 28.7346 82.6053 28.9514 82.6106 29.1434C82.6159 29.3328 82.6716 29.5198 82.7777 29.7042C82.8944 29.9012 83.0642 30.0445 83.287 30.1342C83.5125 30.2215 83.7672 30.2676 84.051 30.2726C84.3375 30.28 84.6293 30.2576 84.9264 30.2053Z" fill="#A7A8A9"/>
<path d="M87.88 30.3174C88.2938 30.3174 88.6745 30.2152 89.022 30.0108C89.3722 29.8064 89.6282 29.5198 89.79 29.1508L88.7077 28.8592C88.5432 29.1982 88.2461 29.3677 87.8163 29.3677C87.5219 29.3677 87.2898 29.2904 87.12 29.1359C86.9528 28.9813 86.8494 28.7595 86.8096 28.4703H89.8258C89.8709 27.9818 89.8179 27.5568 89.6667 27.1953C89.5154 26.8339 89.282 26.5535 88.9663 26.354C88.6506 26.1546 88.2673 26.0549 87.8163 26.0549C87.3919 26.0549 87.0165 26.1459 86.6902 26.3279C86.3639 26.5073 86.1079 26.7604 85.9222 27.0869C85.7365 27.4134 85.6437 27.7973 85.6437 28.2385C85.6437 28.6423 85.7379 29.0013 85.9262 29.3154C86.1172 29.627 86.3798 29.8725 86.7141 30.052C87.051 30.2289 87.4396 30.3174 87.88 30.3174ZM87.8641 26.9373C88.1241 26.9373 88.323 26.9984 88.461 27.1205C88.6016 27.2427 88.6918 27.4409 88.7315 27.7151H86.8375C86.9515 27.1966 87.2937 26.9373 87.8641 26.9373Z" fill="#A7A8A9"/>
<path d="M90.7243 30.2053H91.8146V28.1413C91.8146 27.6727 92.0109 27.3536 92.4035 27.1841C92.5309 27.1268 92.6728 27.0931 92.8293 27.0832C92.9885 27.0707 93.1277 27.0819 93.2471 27.1168V26.1671C93.0535 26.1447 92.8598 26.1496 92.6662 26.182C92.4725 26.212 92.2974 26.2718 92.1409 26.3615C92.0401 26.4164 91.9512 26.4824 91.8743 26.5597C91.8 26.637 91.735 26.723 91.6793 26.8177V26.1671H90.7243V30.2053Z" fill="#A7A8A9"/>
<path d="M95.5893 30.2053H96.6876V28.1563C96.6876 27.9045 96.7167 27.7026 96.7751 27.5505C96.8361 27.3985 96.913 27.2838 97.0059 27.2065C97.0987 27.1268 97.1982 27.0732 97.3043 27.0458C97.4104 27.0183 97.5099 27.0046 97.6028 27.0046C97.8336 27.0046 98.0113 27.0532 98.136 27.1505C98.2633 27.2477 98.3548 27.3686 98.4105 27.5131C98.4662 27.6577 98.4994 27.8023 98.51 27.9469C98.5206 28.089 98.5259 28.2061 98.5259 28.2983V30.2053H99.6242V27.9394C99.6242 27.8721 99.6189 27.7649 99.6083 27.6178C99.5977 27.4708 99.5672 27.3087 99.5168 27.1318C99.4664 26.9523 99.3815 26.7803 99.2621 26.6158C99.1454 26.4513 98.9809 26.3154 98.7687 26.2082C98.5564 26.101 98.2819 26.0474 97.945 26.0474C97.6346 26.0474 97.364 26.096 97.1332 26.1933C96.9024 26.2905 96.7088 26.4201 96.5523 26.5821V24.821H95.5893V30.2053Z" fill="#A7A8A9"/>
<path d="M102.654 30.3174C103.068 30.3174 103.449 30.2152 103.796 30.0108C104.146 29.8064 104.402 29.5198 104.564 29.1508L103.482 28.8592C103.317 29.1982 103.02 29.3677 102.591 29.3677C102.296 29.3677 102.064 29.2904 101.894 29.1359C101.727 28.9813 101.624 28.7595 101.584 28.4703H104.6C104.645 27.9818 104.592 27.5568 104.441 27.1953C104.29 26.8339 104.056 26.5535 103.741 26.354C103.425 26.1546 103.042 26.0549 102.591 26.0549C102.166 26.0549 101.791 26.1459 101.465 26.3279C101.138 26.5073 100.882 26.7604 100.697 27.0869C100.511 27.4134 100.418 27.7973 100.418 28.2385C100.418 28.6423 100.512 29.0013 100.701 29.3154C100.892 29.627 101.154 29.8725 101.488 30.052C101.825 30.2289 102.214 30.3174 102.654 30.3174ZM102.638 26.9373C102.898 26.9373 103.097 26.9984 103.235 27.1205C103.376 27.2427 103.466 27.4409 103.506 27.7151H101.612C101.726 27.1966 102.068 26.9373 102.638 26.9373Z" fill="#A7A8A9"/>
<path d="M106.615 30.3174C106.946 30.3174 107.225 30.2701 107.45 30.1753C107.678 30.0781 107.888 29.9236 108.079 29.7117V30.2053H109.026V27.7375C109.026 27.553 109.018 27.386 109.002 27.2365C108.986 27.0869 108.936 26.9373 108.851 26.7878C108.7 26.5186 108.477 26.3291 108.182 26.2194C107.888 26.1098 107.551 26.0549 107.172 26.0549C106.654 26.0549 106.246 26.1596 105.946 26.369C105.646 26.5784 105.442 26.8501 105.333 27.1841L106.312 27.4758C106.381 27.2913 106.502 27.1629 106.674 27.0906C106.847 27.0183 107.013 26.9822 107.172 26.9822C107.426 26.9822 107.616 27.0271 107.741 27.1168C107.865 27.2041 107.938 27.3424 107.96 27.5318C107.556 27.5867 107.201 27.6403 106.893 27.6926C106.585 27.7425 106.328 27.8023 106.121 27.8721C105.776 27.9917 105.534 28.155 105.393 28.3619C105.252 28.5663 105.182 28.8094 105.182 29.091C105.182 29.3154 105.236 29.521 105.345 29.708C105.457 29.8924 105.619 30.0407 105.831 30.1529C106.046 30.2626 106.307 30.3174 106.615 30.3174ZM106.845 29.5173C106.66 29.5173 106.512 29.4786 106.404 29.4014C106.295 29.3216 106.241 29.2132 106.241 29.0761C106.241 28.9739 106.275 28.8866 106.344 28.8143C106.413 28.7396 106.527 28.6723 106.686 28.6124C106.808 28.5701 106.958 28.5314 107.136 28.4965C107.316 28.4591 107.588 28.4118 107.952 28.3544C107.949 28.4516 107.941 28.5588 107.928 28.676C107.914 28.7907 107.885 28.8916 107.84 28.9789C107.811 29.0362 107.755 29.1072 107.673 29.192C107.594 29.2767 107.485 29.3528 107.347 29.4201C107.212 29.4849 107.044 29.5173 106.845 29.5173Z" fill="#A7A8A9"/>
<path d="M110.14 30.2053H111.223V24.7089H110.14V30.2053Z" fill="#A7A8A9"/>
<path d="M114.994 30.2053V29.3602C114.739 29.3926 114.507 29.4026 114.298 29.3901C114.088 29.3777 113.936 29.3004 113.84 29.1583C113.79 29.0835 113.762 28.9838 113.757 28.8592C113.754 28.7321 113.753 28.59 113.753 28.433V26.9523H114.994V26.1671H113.753V25.0454H112.67V26.1671H111.938V26.9523H112.67V28.4928C112.67 28.7346 112.673 28.9514 112.678 29.1434C112.683 29.3328 112.739 29.5198 112.845 29.7042C112.962 29.9012 113.132 30.0445 113.355 30.1342C113.58 30.2215 113.835 30.2676 114.119 30.2726C114.405 30.28 114.697 30.2576 114.994 30.2053Z" fill="#A7A8A9"/>
<path d="M115.944 30.2053H117.042V28.1563C117.042 27.9045 117.071 27.7026 117.13 27.5505C117.191 27.3985 117.268 27.2838 117.36 27.2065C117.453 27.1268 117.553 27.0732 117.659 27.0458C117.765 27.0183 117.864 27.0046 117.957 27.0046C118.188 27.0046 118.366 27.0532 118.49 27.1505C118.618 27.2477 118.709 27.3686 118.765 27.5131C118.821 27.6577 118.854 27.8023 118.864 27.9469C118.875 28.089 118.88 28.2061 118.88 28.2983V30.2053H119.979V27.9394C119.979 27.8721 119.973 27.7649 119.963 27.6178C119.952 27.4708 119.922 27.3087 119.871 27.1318C119.821 26.9523 119.736 26.7803 119.617 26.6158C119.5 26.4513 119.335 26.3154 119.123 26.2082C118.911 26.101 118.636 26.0474 118.299 26.0474C117.989 26.0474 117.718 26.096 117.488 26.1933C117.257 26.2905 117.063 26.4201 116.907 26.5821V24.821H115.944V30.2053Z" fill="#A7A8A9"/>
<path d="M120.932 31.2148C121.298 31.2696 121.57 31.2048 121.747 31.0204C121.925 30.8359 122.014 30.5642 122.014 30.2053V29.1882H120.932V30.2053H121.489C121.518 30.3847 121.49 30.5306 121.405 30.6427C121.323 30.7549 121.186 30.8035 120.995 30.7886L120.932 31.2148Z" fill="#A7A8A9"/>
<path d="M125.115 30.2053H126.07V29.9734C126.221 30.0831 126.393 30.1679 126.587 30.2277C126.781 30.2875 126.995 30.3174 127.231 30.3174C127.627 30.3174 127.973 30.224 128.27 30.037C128.567 29.8501 128.798 29.5958 128.962 29.2742C129.13 28.9527 129.213 28.59 129.213 28.1862C129.213 27.7749 129.128 27.4097 128.958 27.0906C128.791 26.7691 128.555 26.5161 128.25 26.3316C127.945 26.1471 127.587 26.0549 127.176 26.0549C126.987 26.0549 126.811 26.0761 126.647 26.1185C126.485 26.1609 126.337 26.2219 126.205 26.3017V24.821H125.115V30.2053ZM127.056 29.4126C126.696 29.4126 126.441 29.3004 126.292 29.0761C126.144 28.8492 126.07 28.5526 126.07 28.1862C126.07 27.8197 126.143 27.5244 126.288 27.3C126.437 27.0732 126.68 26.9598 127.017 26.9598C127.258 26.9598 127.456 27.0159 127.61 27.128C127.766 27.2377 127.881 27.386 127.956 27.573C128.03 27.7574 128.067 27.9618 128.067 28.1862C128.067 28.413 128.031 28.6199 127.96 28.8069C127.888 28.9913 127.778 29.1384 127.629 29.2481C127.481 29.3577 127.29 29.4126 127.056 29.4126Z" fill="#A7A8A9"/>
<path d="M132.086 30.3174C132.5 30.3174 132.881 30.2152 133.228 30.0108C133.578 29.8064 133.834 29.5198 133.996 29.1508L132.914 28.8592C132.749 29.1982 132.452 29.3677 132.023 29.3677C131.728 29.3677 131.496 29.2904 131.326 29.1359C131.159 28.9813 131.056 28.7595 131.016 28.4703H134.032C134.077 27.9818 134.024 27.5568 133.873 27.1953C133.722 26.8339 133.488 26.5535 133.173 26.354C132.857 26.1546 132.474 26.0549 132.023 26.0549C131.598 26.0549 131.223 26.1459 130.896 26.3279C130.57 26.5073 130.314 26.7604 130.129 27.0869C129.943 27.4134 129.85 27.7973 129.85 28.2385C129.85 28.6423 129.944 29.0013 130.132 29.3154C130.323 29.627 130.586 29.8725 130.92 30.052C131.257 30.2289 131.646 30.3174 132.086 30.3174ZM132.07 26.9373C132.33 26.9373 132.529 26.9984 132.667 27.1205C132.808 27.2427 132.898 27.4409 132.938 27.7151H131.044C131.158 27.1966 131.5 26.9373 132.07 26.9373Z" fill="#A7A8A9"/>
<path d="M137.509 30.2053V29.3602C137.254 29.3926 137.022 29.4026 136.813 29.3901C136.603 29.3777 136.451 29.3004 136.355 29.1583C136.305 29.0835 136.277 28.9838 136.272 28.8592C136.269 28.7321 136.268 28.59 136.268 28.433V26.9523H137.509V26.1671H136.268V25.0454H135.185V26.1671H134.453V26.9523H135.185V28.4928C135.185 28.7346 135.188 28.9514 135.193 29.1434C135.199 29.3328 135.254 29.5198 135.36 29.7042C135.477 29.9012 135.647 30.0445 135.87 30.1342C136.095 30.2215 136.35 30.2676 136.634 30.2726C136.92 30.28 137.212 30.2576 137.509 30.2053Z" fill="#A7A8A9"/>
<path d="M140.951 30.2053V29.3602C140.697 29.3926 140.465 29.4026 140.255 29.3901C140.045 29.3777 139.893 29.3004 139.797 29.1583C139.747 29.0835 139.719 28.9838 139.714 28.8592C139.711 28.7321 139.71 28.59 139.71 28.433V26.9523H140.951V26.1671H139.71V25.0454H138.628V26.1671H137.895V26.9523H138.628V28.4928C138.628 28.7346 138.63 28.9514 138.635 29.1434C138.641 29.3328 138.696 29.5198 138.803 29.7042C138.919 29.9012 139.089 30.0445 139.312 30.1342C139.537 30.2215 139.792 30.2676 140.076 30.2726C140.362 30.28 140.654 30.2576 140.951 30.2053Z" fill="#A7A8A9"/>
<path d="M143.666 30.3174C144.08 30.3174 144.46 30.2152 144.808 30.0108C145.158 29.8064 145.414 29.5198 145.576 29.1508L144.493 28.8592C144.329 29.1982 144.032 29.3677 143.602 29.3677C143.308 29.3677 143.075 29.2904 142.906 29.1359C142.739 28.9813 142.635 28.7595 142.595 28.4703H145.611C145.657 27.9818 145.604 27.5568 145.452 27.1953C145.301 26.8339 145.068 26.5535 144.752 26.354C144.436 26.1546 144.053 26.0549 143.602 26.0549C143.178 26.0549 142.802 26.1459 142.476 26.3279C142.15 26.5073 141.894 26.7604 141.708 27.0869C141.522 27.4134 141.429 27.7973 141.429 28.2385C141.429 28.6423 141.524 29.0013 141.712 29.3154C141.903 29.627 142.166 29.8725 142.5 30.052C142.837 30.2289 143.225 30.3174 143.666 30.3174ZM143.65 26.9373C143.91 26.9373 144.109 26.9984 144.247 27.1205C144.387 27.2427 144.477 27.4409 144.517 27.7151H142.623C142.737 27.1966 143.079 26.9373 143.65 26.9373Z" fill="#A7A8A9"/>
<path d="M146.51 30.2053H147.6V28.1413C147.6 27.6727 147.797 27.3536 148.189 27.1841C148.317 27.1268 148.458 27.0931 148.615 27.0832C148.774 27.0707 148.913 27.0819 149.033 27.1168V26.1671C148.839 26.1447 148.645 26.1496 148.452 26.182C148.258 26.212 148.083 26.2718 147.927 26.3615C147.826 26.4164 147.737 26.4824 147.66 26.5597C147.586 26.637 147.521 26.723 147.465 26.8177V26.1671H146.51V30.2053Z" fill="#A7A8A9"/>
<path d="M151.932 32H152.935L155.362 26.1671H154.28L153.158 28.9153L152.028 26.1671H150.905L152.64 30.1716L151.932 32Z" fill="#A7A8A9"/>
<path d="M157.7 30.3174C158.13 30.3174 158.508 30.2277 158.834 30.0482C159.163 29.8663 159.419 29.6157 159.602 29.2967C159.788 28.9751 159.881 28.6049 159.881 28.1862C159.881 27.7699 159.789 27.4022 159.606 27.0832C159.423 26.7616 159.167 26.5098 158.838 26.3279C158.512 26.1459 158.133 26.0549 157.7 26.0549C157.276 26.0549 156.9 26.1447 156.574 26.3241C156.248 26.5036 155.992 26.7541 155.806 27.0757C155.62 27.3947 155.527 27.7649 155.527 28.1862C155.527 28.6025 155.618 28.9714 155.798 29.2929C155.981 29.612 156.236 29.8625 156.562 30.0445C156.888 30.2264 157.268 30.3174 157.7 30.3174ZM157.7 29.3677C157.363 29.3677 157.107 29.2618 156.932 29.0499C156.76 28.8355 156.674 28.5476 156.674 28.1862C156.674 27.8347 156.756 27.5505 156.92 27.3337C157.087 27.1143 157.347 27.0046 157.7 27.0046C158.042 27.0046 158.3 27.1118 158.472 27.3262C158.647 27.5406 158.735 27.8272 158.735 28.1862C158.735 28.5327 158.649 28.8168 158.476 29.0387C158.306 29.258 158.048 29.3677 157.7 29.3677Z" fill="#A7A8A9"/>
<path d="M162.355 30.3249C162.666 30.3249 162.936 30.2763 163.167 30.1791C163.398 30.0819 163.592 29.9523 163.748 29.7902V30.2053H164.703V26.1671H163.613V28.2161C163.613 28.4654 163.582 28.6673 163.521 28.8218C163.463 28.9739 163.387 29.0898 163.295 29.1695C163.202 29.2468 163.102 29.2992 162.996 29.3266C162.89 29.354 162.79 29.3677 162.698 29.3677C162.467 29.3677 162.288 29.3191 162.16 29.2219C162.036 29.1247 161.946 29.0038 161.89 28.8592C161.834 28.7146 161.801 28.5713 161.79 28.4292C161.78 28.2846 161.774 28.1662 161.774 28.074V26.1671H160.676V28.433C160.676 28.5003 160.681 28.6074 160.692 28.7545C160.703 28.9016 160.733 29.0649 160.784 29.2443C160.834 29.4213 160.918 29.5921 161.034 29.7566C161.154 29.9211 161.319 30.0569 161.532 30.1641C161.744 30.2713 162.019 30.3249 162.355 30.3249Z" fill="#A7A8A9"/>
</svg>
