<svg width="141" height="23" viewBox="0 0 141 23" fill="none" xmlns="http://www.w3.org/2000/svg">
<path d="M4.85156 14.8359H12.0117V18H0.738281V0.9375H4.85156V14.8359ZM13.0664 11.543C13.0664 10.2773 13.3125 9.15234 13.8047 8.16797C14.2969 7.17578 15.0039 6.41406 15.9258 5.88281C16.8477 5.35156 17.9297 5.08594 19.1719 5.08594C21.0703 5.08594 22.5664 5.67578 23.6602 6.85547C24.7539 8.02734 25.3008 9.625 25.3008 11.6484V11.7891C25.3008 13.7656 24.75 15.3359 23.6484 16.5C22.5547 17.6562 21.0703 18.2344 19.1953 18.2344C17.3906 18.2344 15.9414 17.6953 14.8477 16.6172C13.7539 15.5312 13.1641 14.0625 13.0781 12.2109L13.0664 11.543ZM17.0156 11.7891C17.0156 12.9609 17.1992 13.8203 17.5664 14.3672C17.9336 14.9141 18.4766 15.1875 19.1953 15.1875C20.6016 15.1875 21.3203 14.1055 21.3516 11.9414V11.543C21.3516 9.26953 20.625 8.13281 19.1719 8.13281C17.8516 8.13281 17.1367 9.11328 17.0273 11.0742L17.0156 11.7891ZM26.5781 11.5664C26.5781 10.2852 26.7891 9.15234 27.2109 8.16797C27.6328 7.18359 28.2383 6.42578 29.0273 5.89453C29.8164 5.35547 30.7344 5.08594 31.7812 5.08594C33.1016 5.08594 34.1328 5.53125 34.875 6.42188L35.0156 5.32031H38.6016V17.5195C38.6016 18.6367 38.3398 19.6055 37.8164 20.4258C37.3008 21.2539 36.5508 21.8867 35.5664 22.3242C34.582 22.7695 33.4414 22.9922 32.1445 22.9922C31.2148 22.9922 30.3125 22.8164 29.4375 22.4648C28.5703 22.1133 27.9062 21.6562 27.4453 21.0938L29.0977 18.7734C29.832 19.6406 30.8008 20.0742 32.0039 20.0742C33.7539 20.0742 34.6289 19.1758 34.6289 17.3789V16.9805C33.8711 17.8164 32.9141 18.2344 31.7578 18.2344C30.2109 18.2344 28.9609 17.6445 28.0078 16.4648C27.0547 15.2773 26.5781 13.6914 26.5781 11.707V11.5664ZM30.5391 11.8125C30.5391 12.8516 30.7344 13.6758 31.125 14.2852C31.5156 14.8867 32.0625 15.1875 32.7656 15.1875C33.6172 15.1875 34.2383 14.9023 34.6289 14.332V9C34.2461 8.42188 33.6328 8.13281 32.7891 8.13281C32.0859 8.13281 31.5352 8.44922 31.1367 9.08203C30.7383 9.70703 30.5391 10.6172 30.5391 11.8125ZM40.3477 11.543C40.3477 10.2773 40.5938 9.15234 41.0859 8.16797C41.5781 7.17578 42.2852 6.41406 43.207 5.88281C44.1289 5.35156 45.2109 5.08594 46.4531 5.08594C48.3516 5.08594 49.8477 5.67578 50.9414 6.85547C52.0352 8.02734 52.582 9.625 52.582 11.6484V11.7891C52.582 13.7656 52.0312 15.3359 50.9297 16.5C49.8359 17.6562 48.3516 18.2344 46.4766 18.2344C44.6719 18.2344 43.2227 17.6953 42.1289 16.6172C41.0352 15.5312 40.4453 14.0625 40.3594 12.2109L40.3477 11.543ZM44.2969 11.7891C44.2969 12.9609 44.4805 13.8203 44.8477 14.3672C45.2148 14.9141 45.7578 15.1875 46.4766 15.1875C47.8828 15.1875 48.6016 14.1055 48.6328 11.9414V11.543C48.6328 9.26953 47.9062 8.13281 46.4531 8.13281C45.1328 8.13281 44.418 9.11328 44.3086 11.0742L44.2969 11.7891Z" fill="#333333"/>
<path d="M64.1953 14.8125H58.5586L57.5742 18H53.1797L59.4375 0.9375H63.3047L69.6094 18H65.1914L64.1953 14.8125ZM59.543 11.6367H63.2109L61.3711 5.71875L59.543 11.6367ZM75.4805 14.9531H81.2578V18H70.4883V15.7969L76.1133 8.36719H70.7344V5.32031H81.1289V7.45312L75.4805 14.9531ZM87.3398 18H83.3789V5.32031H87.3398V18ZM83.1445 2.05078C83.1445 1.48828 83.3477 1.02734 83.7539 0.667969C84.1602 0.308594 84.6875 0.128906 85.3359 0.128906C85.9844 0.128906 86.5117 0.308594 86.918 0.667969C87.3242 1.02734 87.5273 1.48828 87.5273 2.05078C87.5273 2.61328 87.3242 3.07422 86.918 3.43359C86.5117 3.79297 85.9844 3.97266 85.3359 3.97266C84.6875 3.97266 84.1602 3.79297 83.7539 3.43359C83.3477 3.07422 83.1445 2.61328 83.1445 2.05078ZM95.918 18.2344C93.9727 18.2344 92.3984 17.6562 91.1953 16.5C89.9922 15.3359 89.3906 13.8242 89.3906 11.9648V11.6367C89.3906 10.3398 89.6289 9.19531 90.1055 8.20312C90.5898 7.21094 91.293 6.44531 92.2148 5.90625C93.1367 5.35938 94.2305 5.08594 95.4961 5.08594C97.2773 5.08594 98.6836 5.64062 99.7148 6.75C100.746 7.85156 101.262 9.39062 101.262 11.3672V12.9023H93.4102C93.5508 13.6133 93.8594 14.1719 94.3359 14.5781C94.8125 14.9844 95.4297 15.1875 96.1875 15.1875C97.4375 15.1875 98.4141 14.75 99.1172 13.875L100.922 16.0078C100.43 16.6875 99.7305 17.2305 98.8242 17.6367C97.9258 18.0352 96.957 18.2344 95.918 18.2344ZM95.4727 8.13281C94.3164 8.13281 93.6289 8.89844 93.4102 10.4297H97.3945V10.125C97.4102 9.49219 97.25 9.00391 96.9141 8.66016C96.5781 8.30859 96.0977 8.13281 95.4727 8.13281ZM106.488 5.32031L106.617 6.80859C107.492 5.66016 108.699 5.08594 110.238 5.08594C111.559 5.08594 112.543 5.48047 113.191 6.26953C113.848 7.05859 114.188 8.24609 114.211 9.83203V18H110.25V9.99609C110.25 9.35547 110.121 8.88672 109.863 8.58984C109.605 8.28516 109.137 8.13281 108.457 8.13281C107.684 8.13281 107.109 8.4375 106.734 9.04688V18H102.785V5.32031H106.488ZM115.91 11.5664C115.91 9.55859 116.344 7.97656 117.211 6.82031C118.078 5.66406 119.289 5.08594 120.844 5.08594C121.977 5.08594 122.93 5.53125 123.703 6.42188V0H127.664V18H124.113L123.914 16.6406C123.102 17.7031 122.07 18.2344 120.82 18.2344C119.312 18.2344 118.117 17.6562 117.234 16.5C116.352 15.3438 115.91 13.6992 115.91 11.5664ZM119.859 11.8125C119.859 14.0625 120.516 15.1875 121.828 15.1875C122.703 15.1875 123.328 14.8203 123.703 14.0859V9.25781C123.344 8.50781 122.727 8.13281 121.852 8.13281C120.633 8.13281 119.973 9.11719 119.871 11.0859L119.859 11.8125ZM137.051 18C136.91 17.7422 136.785 17.3633 136.676 16.8633C135.949 17.7773 134.934 18.2344 133.629 18.2344C132.434 18.2344 131.418 17.875 130.582 17.1562C129.746 16.4297 129.328 15.5195 129.328 14.4258C129.328 13.0508 129.836 12.0117 130.852 11.3086C131.867 10.6055 133.344 10.2539 135.281 10.2539H136.5V9.58594C136.5 8.42188 135.996 7.83984 134.988 7.83984C134.051 7.83984 133.582 8.30078 133.582 9.22266H129.633C129.633 7.99609 130.152 7 131.191 6.23438C132.238 5.46875 133.57 5.08594 135.188 5.08594C136.805 5.08594 138.082 5.48047 139.02 6.26953C139.957 7.05859 140.438 8.14062 140.461 9.51562V15.1289C140.477 16.293 140.656 17.1836 141 17.8008V18H137.051ZM134.578 15.4219C135.07 15.4219 135.477 15.3164 135.797 15.1055C136.125 14.8945 136.359 14.6562 136.5 14.3906V12.3633H135.352C133.977 12.3633 133.289 12.9805 133.289 14.2148C133.289 14.5742 133.41 14.8672 133.652 15.0938C133.895 15.3125 134.203 15.4219 134.578 15.4219Z" fill="#EB5757"/>
</svg>
