<svg width="485" height="64" viewBox="0 0 485 64" fill="none" xmlns="http://www.w3.org/2000/svg">
<rect x="0.5" y="0.5" width="484" height="63" rx="7.5" fill="white" stroke="#DDDEE1"/>
<path fill-rule="evenodd" clip-rule="evenodd" d="M314.759 35.7496L297.679 36.6711L280.571 37.5222L249.084 38.9208C251.832 37.309 254.533 35.6195 257.188 33.8523C258.033 33.2831 258.883 32.7085 259.717 32.123L260.973 31.2448L261.599 30.8003L261.679 30.7407L261.727 30.7027L261.802 30.6377C261.844 30.5898 261.884 30.5391 261.919 30.4859C261.987 30.3859 262.034 30.2736 262.058 30.1552C262.118 29.9065 262.079 29.6441 261.951 29.4234C261.871 29.2861 261.758 29.1712 261.622 29.0889C261.487 29.0067 261.334 28.9595 261.176 28.9518H260.706C258.674 29.0494 256.648 29.1668 254.628 29.3042C250.575 29.5644 246.528 29.9041 242.487 30.3233C241.418 30.4371 240.322 30.5672 239.236 30.6865L241.316 29.8517L246.491 27.7863L249.078 26.7455L249.72 26.4853L250.046 26.3552L250.206 26.2901H250.244L250.345 26.2468C250.411 26.2149 250.474 26.1768 250.533 26.133C250.802 25.9483 250.993 25.6677 251.067 25.3469C251.108 25.1786 251.115 25.0037 251.089 24.8324C251.063 24.6611 251.004 24.4967 250.915 24.3486C250.826 24.2006 250.709 24.0718 250.571 23.9696C250.433 23.8674 250.276 23.7939 250.11 23.7532C250.045 23.7367 249.979 23.7258 249.912 23.7207H249.378L248.672 23.6773C243.156 23.3652 237.623 23.583 232.148 24.3278L231.864 24.3603L231.554 24.4091C230.319 24.5772 229.095 24.7831 227.871 25.0054L228.833 17.2753C228.855 17.1031 228.844 16.9283 228.801 16.7603V16.6627L228.833 16.4025V16.267C228.856 16.1397 228.856 16.0094 228.833 15.8821C228.783 15.5864 228.627 15.3199 228.395 15.134C228.228 15.001 228.03 14.9146 227.82 14.8832C227.61 14.8518 227.395 14.8766 227.197 14.9551C226.982 15.0472 226.796 15.1995 226.663 15.3942C226.582 15.511 226.522 15.6413 226.486 15.7791L226.412 15.9905L226.363 16.1314C226.26 16.2452 226.175 16.3752 226.112 16.5163C225.605 17.6643 224.829 18.6693 223.851 19.4436C223.344 19.8458 222.808 20.2083 222.247 20.5278C221.66 20.8535 221.053 21.1396 220.429 21.3843C217.895 22.3763 215.083 22.7828 212.202 23.0918C206.453 23.7061 200.66 23.7841 194.897 23.3249C194.757 23.3138 194.616 23.3266 194.48 23.3629C194.312 23.4059 194.154 23.4821 194.015 23.5873C193.876 23.6924 193.759 23.8243 193.671 23.9754C193.582 24.1265 193.524 24.2939 193.5 24.4679C193.475 24.6418 193.485 24.819 193.529 24.9891C194.575 29.2083 196.65 33.0931 199.564 36.2862C199.686 36.4173 199.833 36.5207 199.997 36.5898C200.308 36.7234 200.658 36.7265 200.971 36.5984C201.283 36.4703 201.533 36.2216 201.665 35.9068C202.707 33.3975 204.054 31.0301 205.675 28.8596C206.081 28.3176 206.498 27.7755 206.936 27.2822L207.236 26.9407C207.828 27.6369 208.298 28.4308 208.626 29.2879C209.484 31.6888 209.484 34.319 208.626 36.7199C208.215 37.9235 207.601 39.0459 206.813 40.0375C206.016 41.0127 205.048 41.8305 203.958 42.4498C201.681 43.6786 199.104 44.2185 196.533 44.0056C193.919 43.8351 191.386 43.018 189.156 41.6258C188.049 40.9445 187.043 40.1087 186.167 39.143C185.298 38.2144 184.621 37.1199 184.173 35.923C183.751 34.7351 183.603 33.4648 183.74 32.2097C183.893 30.9172 184.27 29.6621 184.852 28.5019C186.085 26.0767 187.665 23.8499 189.54 21.8938C192.663 18.4287 196.391 15.5799 200.537 13.4915C201.339 13.1012 202.141 12.7326 202.986 12.4073C204.206 11.8755 205.508 11.5619 206.835 11.4803C207.461 11.4605 208.086 11.556 208.679 11.7622C209.25 11.9744 209.767 12.3134 210.192 12.7543C210.613 13.1828 210.912 13.7183 211.058 14.3046C211.125 14.5792 211.145 14.8634 211.117 15.1449C211.104 15.2856 211.081 15.4251 211.047 15.5623C211.016 15.6868 211.016 15.8172 211.047 15.9417C211.083 16.0841 211.16 16.2128 211.267 16.3118C211.374 16.4108 211.507 16.4758 211.651 16.4989C211.794 16.5219 211.941 16.502 212.073 16.4415C212.205 16.3811 212.317 16.2827 212.394 16.1586C212.439 16.0853 212.47 16.0045 212.485 15.92L212.523 15.7683C212.7 14.9436 212.62 14.0835 212.293 13.3072C211.98 12.5608 211.499 11.8997 210.887 11.3774C209.657 10.3726 208.093 9.88723 206.519 10.0221C205.055 10.1458 203.621 10.512 202.275 11.1063C199.642 12.1673 197.132 13.518 194.79 15.134C192.44 16.7517 190.268 18.6199 188.311 20.7067C186.278 22.7672 184.557 25.122 183.205 27.6942C182.502 29.0463 182.042 30.5149 181.848 32.0309C181.646 33.5843 181.805 35.1641 182.313 36.644C182.569 37.3647 182.904 38.0539 183.312 38.6985C183.714 39.3446 184.168 39.9556 184.67 40.5253C185.664 41.6468 186.809 42.6212 188.07 43.4201C190.582 45.0268 193.443 45.9836 196.405 46.2064C199.406 46.4878 202.423 45.8815 205.092 44.4609C206.442 43.7168 207.644 42.7241 208.636 41.5336C209.613 40.338 210.376 38.9786 210.892 37.5168C211.975 34.5729 211.986 31.3342 210.924 28.3826C210.611 27.5596 210.2 26.7786 209.7 26.0571C210.636 25.992 211.571 25.9161 212.507 25.824C215.442 25.5204 218.494 25.1247 221.45 23.9971C222.87 23.463 224.21 22.7334 225.433 21.8288L224.995 25.309L224.733 25.3632L224.524 25.412H224.417L224.22 25.4879C224.099 25.5485 223.986 25.6231 223.883 25.7101C223.708 25.8581 223.568 26.0432 223.471 26.2522C223.376 26.4663 223.332 26.7005 223.343 26.9352C223.347 27.0619 223.367 27.1876 223.402 27.3093V27.3364C223.546 27.8514 223.674 28.3718 223.776 28.8922C223.983 29.9054 224.115 30.9327 224.172 31.9658L223.674 35.8959L223.423 37.9287L223.231 39.4574L223.199 39.7014C223.169 39.9225 223.184 40.1474 223.241 40.3627C223.348 40.7209 223.577 41.0285 223.888 41.2301C224.119 41.3757 224.382 41.4596 224.653 41.474C224.897 41.4826 225.14 41.4344 225.364 41.333C225.628 41.2171 225.855 41.0295 226.021 40.791C226.096 40.6665 226.157 40.5337 226.203 40.3953V40.3627L226.315 39.9724L226.465 39.4303C226.558 39.0689 226.643 38.7166 226.722 38.3733C226.877 37.6631 227 36.9476 227.096 36.2049C227.273 34.8086 227.325 33.3988 227.251 31.9929L227.785 27.8405C232.732 26.8712 237.754 26.3488 242.792 26.2793L230.512 31.3153L229.747 31.6243L229.368 31.7815L229.272 31.8249L229.186 31.8574C229.029 31.9275 228.885 32.0268 228.764 32.1501C228.614 32.3026 228.502 32.4883 228.436 32.6926C228.37 32.8969 228.353 33.1139 228.384 33.3264C228.403 33.5374 228.47 33.741 228.581 33.9208C228.691 34.1006 228.842 34.2517 229.02 34.3618C229.185 34.4548 229.367 34.5103 229.555 34.5244C229.635 34.5326 229.716 34.5326 229.796 34.5244H230.175L230.581 34.4594L231.394 34.3401L234.65 33.8685C242.255 32.7844 249.891 31.9333 257.557 31.3153C255.504 32.7898 253.418 34.2209 251.297 35.6086C249.775 36.6024 248.237 37.5674 246.683 38.5034L246.101 38.8557L245.812 39.0292L245.662 39.1159L245.593 39.1647H245.55C245.504 39.1943 245.461 39.2288 245.422 39.2677C245.344 39.3425 245.282 39.433 245.24 39.5333C245.164 39.7193 245.158 39.9268 245.222 40.1173C245.286 40.3078 245.416 40.4682 245.587 40.5687C245.727 40.6426 245.885 40.6746 246.042 40.6609H246.464L247.143 40.6121L271.606 38.9587C278.855 38.4546 286.105 38.0155 293.354 37.5601L309.67 36.5898L312.391 36.4326L313.748 36.3513L314.427 36.3133H314.78C314.841 36.303 314.895 36.2711 314.935 36.2233C314.974 36.1756 314.995 36.1152 314.994 36.0531C315.002 36.0171 315.002 35.9797 314.994 35.9437C314.986 35.9076 314.97 35.8739 314.947 35.8448C314.925 35.8158 314.896 35.7922 314.864 35.7757C314.831 35.7592 314.795 35.7503 314.759 35.7496ZM204.509 26.2901C204.231 26.6317 203.975 26.9732 203.691 27.3201C202.351 29.0904 201.178 30.9853 200.19 32.9795C198.616 30.906 197.398 28.5786 196.586 26.095C199.222 26.2739 201.863 26.3335 204.509 26.2901ZM212.261 15.8116C212.263 15.826 212.263 15.8406 212.261 15.855C212.261 15.855 212.261 15.8279 212.261 15.8116ZM226 40.1188C225.989 40.1567 225.995 40.1513 226 40.1188V40.1188ZM245.978 39.2406C245.951 39.2406 245.946 39.2406 245.978 39.2406V39.2406Z" fill="#040404"/>
<path d="M313.674 47.8491L295.797 47.1769L277.936 46.7378L268.992 46.6727H264.518C263.026 46.6727 261.535 46.6727 260.043 46.6727C254.077 46.7378 248.111 46.7378 242.145 46.9384L237.67 47.0414L235.436 47.0956L233.201 47.1931L224.252 47.5618L215.314 48.1364C212.336 48.3641 209.363 48.6785 206.391 48.9332C203.419 49.188 200.452 49.6271 197.49 50.0174C194.528 50.4077 191.567 50.8034 188.626 51.3509C187.151 51.6003 185.681 51.8443 184.211 52.137C182.741 52.4297 181.276 52.6791 179.816 52.9989C176.887 53.5952 173.989 54.3433 171.065 54.842C171.055 54.8433 171.046 54.8466 171.037 54.8517C171.028 54.8568 171.021 54.8636 171.015 54.8717C171.009 54.8798 171.005 54.889 171.002 54.8988C171 54.9086 170.999 54.9187 171.001 54.9287C171.001 54.9392 171.004 54.9494 171.009 54.9588C171.014 54.9681 171.02 54.9764 171.028 54.983C171.036 54.9896 171.046 54.9945 171.056 54.9973C171.066 55.0001 171.076 55.0007 171.086 54.9992C172.578 54.8854 174.059 54.6468 175.529 54.4137C176.999 54.1806 178.475 53.9421 179.95 53.7253C181.425 53.5085 182.896 53.2699 184.366 53.0585C185.836 52.8471 187.317 52.652 188.792 52.4622C191.743 52.0774 194.705 51.7467 197.656 51.4052C200.607 51.0636 203.579 50.8197 206.546 50.5649C209.513 50.3102 212.475 50.0228 215.442 49.8385L224.348 49.188L233.265 48.6459L235.5 48.5158L242.193 48.2394C248.143 47.9575 254.104 47.8762 260.059 47.7298C261.551 47.6919 263.037 47.6702 264.528 47.6648L277.936 47.578L295.818 47.6919L313.701 48.0388C313.715 48.0381 313.728 48.0335 313.739 48.0254C313.751 48.0174 313.76 48.0062 313.765 47.9933C313.771 47.9803 313.773 47.966 313.771 47.9521C313.769 47.9381 313.763 47.9249 313.754 47.9141C313.75 47.8955 313.74 47.8788 313.726 47.8669C313.711 47.855 313.693 47.8487 313.674 47.8491Z" fill="#040404"/>
</svg>
